<svg xmlns="http://www.w3.org/2000/svg" width="207" height="265.41" viewBox="0 0 207 265.41"><g id="_9" data-name="9" transform="translate(-559.127 -264.486)"><path id="&#x30D1;&#x30B9;_3019" data-name="&#x30D1;&#x30B9; 3019" d="M738.468,687.28c0-.034-.758-1.825-1.687-3.96-.9-2.169-2.307-5.853-3.133-8.229-3.478-10.192-7.541-15.184-14.806-18.145-3.787-1.549-7.4-1.928-16.011-1.653l-7.231.241-3.443-1.756c-1.894-.964-4.3-2.2-5.337-2.789a17.4,17.4,0,0,0-6.714-2.135c-1.584,0-3.615.723-3.615,1.274,0,.9,9.675,7.334,13.428,8.952a32.482,32.482,0,0,1,7.816,4.545c1.205,1,1.481,1.412,1.481,2.376,0,1.067-.069,1.171-1.067,1.171a7.911,7.911,0,0,1-3.409-1.549,42.187,42.187,0,0,0-7.919-4.132,16.664,16.664,0,0,1-2.927-1.653c-1.136-.792-3.374-2.307-4.993-3.409a43.91,43.91,0,0,1-4.2-3.2c-1.24-1.136-1.308-1.343-1.308-3.34,0-1.584.138-2.2.585-2.513.551-.413.551-.482,0-1.308a3.94,3.94,0,0,1-.585-1.412.924.924,0,0,0-.516-.689c-.344-.1-.516-.654-.516-1.584,0-1.136-.1-1.377-.689-1.377-.448,0-.758-.31-.9-.93a11.454,11.454,0,0,0-2.686-4.683,5.425,5.425,0,0,1-1.24-1.653c0-.172-.448-.31-1.033-.31a2.219,2.219,0,0,0-1.033.138,73.748,73.748,0,0,0,2.789,8.229,64.935,64.935,0,0,1,2.238,6.921c.861,3.443.964,3.65,3.064,5.957a60,60,0,0,0,5.543,5.1,38.57,38.57,0,0,1,6.886,6.576c2.2,2.651,3.34,3.03,19.591,6.37,6.129,1.274,8.023,1.928,9.606,3.443,1.859,1.687,3.409,4.82,4.235,8.5l.62,2.892,9.572-.1c5.234-.069,9.537-.138,9.537-.172Z" transform="translate(-69.278 -241.91)" fill="#fdfbfc"></path><path id="&#x30D1;&#x30B9;_3020" data-name="&#x30D1;&#x30B9; 3020" d="M911.133,676.742c.93-4.889,2.445-7.713,5.1-9.538,2.582-1.79,2.307-1.687,19.247-5.13,5.957-1.171,6.714-1.584,10.088-5.268a47.986,47.986,0,0,1,5.13-4.786c3.34-2.617,7.816-6.99,8.539-8.367a24.029,24.029,0,0,0,1.1-3.753,44.748,44.748,0,0,1,1.79-5.681c.689-1.618,1.653-4.373,2.169-6.094l.964-3.2h-2.341v-2.238c0-2.548-.344-2.823-1.825-1.274a7.424,7.424,0,0,0-1.928,4.1c.034.413.1.31.276-.241.172-.689.482-.9,1.515-.964,1.24-.1,1.274-.1,1.274,1.136,0,.964-.172,1.308-.689,1.446-.379.1-.689.413-.689.689a7.4,7.4,0,0,1-.758,1.928,22.355,22.355,0,0,0-1.136,3,2.571,2.571,0,0,1-1.136,1.894,1.244,1.244,0,0,0-.757.93,2.123,2.123,0,0,1-.62,1.24c-1.1,1.1-1.171,2.169-.241,3.03a2.783,2.783,0,0,1,.861,2.513c0,1.928-.413,2.376-3.925,4.511-1.1.654-3.374,2.2-5.1,3.374a42.775,42.775,0,0,1-6.06,3.512c-3.787,1.687-6.749,3.305-7.3,3.96a1.523,1.523,0,0,1-.9.516c-.276,0-.482.172-.482.344,0,.207-.551.344-1.205.344-1.136,0-1.205-.069-1.205-1.1,0-2.031,3.374-4.407,11.018-7.781a36.086,36.086,0,0,0,4.407-2.686c1.549-1.136,3.925-2.72,5.234-3.581l2.41-1.549-.758-.585a8.653,8.653,0,0,0-2.307-.93c-2.341-.482-4.786.379-11.913,4.269l-3.787,2.066-9.469.034c-10.536,0-12.361.275-16.906,2.548-3.374,1.722-7.265,5.853-9.469,10.157a40.043,40.043,0,0,0-2.376,5.337,142.769,142.769,0,0,1-5.337,13.531c-.344.551.172.585,9.365.516l9.744-.1.379-2.066Z" transform="translate(-217.979 -233.404)" fill="#fdfbfc"></path><path id="&#x30D1;&#x30B9;_3021" data-name="&#x30D1;&#x30B9; 3021" d="M740.045,424.257a82.277,82.277,0,0,0,6.714-8.608c1.584-2.548,4.993-8.332,4.993-8.47,0-.1.826-1.928,1.859-4.063,8.814-18.49,13.256-42.833,11.982-65.661-1.274-22.243-6.37-41.111-15.563-57.741-1.722-3.133-7.3-11.19-7.988-11.569a25.175,25.175,0,0,0-4.545-.551c-12.912-.689-29.783,3.719-41.834,10.949a82.192,82.192,0,0,0-31.126,33.192c-1.067,2.1-2.066,4.235-2.272,4.717-.379,1.033-.344,1.067,2.1,1.446,1.205.207,1.274.172,1.481-.9a28.047,28.047,0,0,1,2.548-8.229,26.877,26.877,0,0,1,16.458-13.463c3.822-1.1,11.81-1.1,15.563,0a24.718,24.718,0,0,1,11.776,7.058,18.845,18.845,0,0,1,4.373,6.163c2.2,4.407,2.823,7.231,2.823,12.843,0,6.37-.861,9.813-3.581,14.392-1.653,2.755-6.714,8.16-7.644,8.16a3.785,3.785,0,0,0-1.1.654,28.607,28.607,0,0,1-8.952,3.305c-12.74,2.238-24.446-3.374-29.749-14.186-1-2.066-1.584-2.858-2.031-2.858-.826,0-.826.138.1,3.546.654,2.376.792,3.719.792,8.539v5.681l-1.308,2.617c-1.584,3.2-4.476,6.3-7.058,7.506-2.135.964-2.1.482-.413,7.231a67.629,67.629,0,0,0,4.132,12.085c1.274,2.927,1.825,4.029,3.409,7.127a111.306,111.306,0,0,0,7.85,11.5,83.525,83.525,0,0,0,10.157,10.364c1.618,1.205,5.234,2.582,8.883,3.34a96.984,96.984,0,0,0,10.329.689c4.648.172,9.055.379,9.813.516a23.257,23.257,0,0,1,12.326,5.991c2.066,1.963,5.406,6.37,5.406,7.162a2.808,2.808,0,0,0,.551,1.067c.482.689.826.758,3.581.758h3.03l2.135-2.307Z" transform="translate(-64.313 -1.991)" fill="#fdfbfc"></path><path id="&#x30D1;&#x30B9;_3022" data-name="&#x30D1;&#x30B9; 3022" d="M952.563,655.993a43.856,43.856,0,0,1,5.475-.516h2.272l2.479-2.651a47.853,47.853,0,0,0,3.891-4.752c4.063-6.06,4.751-7.127,4.648-7.265a9,9,0,0,0-2.2.585c-1.1.413-3.34,1.1-4.958,1.549-2.789.792-3.581,1-6.749,1.825a13.23,13.23,0,0,1-2.789.379c-1.515,0-1.343-.207-2.582,3.2-.207.585-1.308,2.823-2.376,4.958-1.825,3.615-1.894,3.822-1.1,3.512a35.094,35.094,0,0,1,3.994-.826Z" transform="translate(-255.037 -246.742)" fill="#fdfbfc"></path><path id="&#x30D1;&#x30B9;_3023" data-name="&#x30D1;&#x30B9; 3023" d="M1012.8,630.3c1.033-.207,4.786-3.305,9.021-7.472a72.258,72.258,0,0,0,9.537-11.259c2-2.823,5.647-8.918,5.647-9.365a22.717,22.717,0,0,0-3.684,2.272c-2.066,1.377-5.44,3.409-7.575,4.545l-3.856,2.031-1.446,2.927c-2.341,4.889-7.816,13.428-10.157,15.873l-1,1.067,1.377-.241c.758-.1,1.722-.275,2.135-.379Z" transform="translate(-295.162 -221.429)" fill="#fdfbfc"></path><path id="&#x30D1;&#x30B9;_3024" data-name="&#x30D1;&#x30B9; 3024" d="M701,659.571c-.758-1.515-.93-1.308-.241.31.31.723.62,1.205.689,1.033A2.756,2.756,0,0,0,701,659.571Z" transform="translate(-92.584 -258.377)" fill="#fdfbfc"></path><path id="&#x30D1;&#x30B9;_3025" data-name="&#x30D1;&#x30B9; 3025" d="M1067.611,659.565a2.761,2.761,0,0,0,.413-1.136,6.2,6.2,0,0,0-1.24,2.272c0,.379.172.1.826-1.136Z" transform="translate(-332.864 -258.302)" fill="#fdfbfc"></path><path id="&#x30D1;&#x30B9;_3026" data-name="&#x30D1;&#x30B9; 3026" d="M674.884,623.149c-.448-1-2.169-2.72-2.789-2.72-.172,0-.31.689-.31,1.549,0,1.549,0,1.549,1.205,1.549.861,0,1.274.207,1.584.758C675.159,625.387,675.4,624.457,674.884,623.149Z" transform="translate(-73.868 -233.386)" fill="#fdfbfc"></path><path id="&#x30D1;&#x30B9;_3027" data-name="&#x30D1;&#x30B9; 3027" d="M974.882,569.835c5.1-1.343,14.909-4.889,16.458-5.922,1.24-.826,5.612-15.184,6.68-21.933.689-4.373.9-3.994-1.687-3.03a133.736,133.736,0,0,1-14.323,4.063l-4.82,1.067L976.6,547.7a157.888,157.888,0,0,1-4.373,19.695,22.651,22.651,0,0,0-.861,3.34C971.438,570.73,973.022,570.317,974.882,569.835Z" transform="translate(-270.297 -179.556)" fill="#fdfbfc"></path><path id="&#x30D1;&#x30B9;_3028" data-name="&#x30D1;&#x30B9; 3028" d="M1061.375,534.015a101.374,101.374,0,0,0,8.264-6.576c.1-.172,1.377-1.515,2.823-3l2.651-2.686.826-3.581c.758-3.133,2.169-13.979,1.859-14.255a21.487,21.487,0,0,0-3.064,1.859c-1.618,1.067-5.061,3.064-7.609,4.442l-4.682,2.513-.413,3.512c-.206,1.928-.62,4.683-.861,6.129-.413,2.307-2.582,11.328-3.133,13.153-.172.585-.1.585.62.207.413-.207,1.652-1,2.72-1.722Z" transform="translate(-327.076 -156.992)" fill="#fdfbfc"></path><path id="&#x30D1;&#x30B9;_3029" data-name="&#x30D1;&#x30B9; 3029" d="M570.389,468.148a29.961,29.961,0,0,1,5.2-1.894c15.907-3.925,23.379-7.334,26.96-12.326,3.168-4.476,3.546-7.334,1.79-14.014a25.478,25.478,0,0,1-1-6.611c-.034-2.651.034-2.858.964-3.856a4.753,4.753,0,0,1,2.169-1.274,3.1,3.1,0,0,0,1.067-.31c-.069-.069-2.341-.379-5.1-.689-7.988-.93-12.189-.31-18.9,2.789-2.754,1.274-6.4,5.2-8.195,8.849a17.508,17.508,0,0,0-1.481,3.478,26.7,26.7,0,0,1-.654,3.064,117.109,117.109,0,0,0-2.135,12.12c-.344,2.307-1.584,9.331-1.825,10.6-.172.723-.1.723,1.136.069Z" transform="translate(-6.594 -106.412)" fill="#fdfbfc"></path><path id="&#x30D1;&#x30B9;_3030" data-name="&#x30D1;&#x30B9; 3030" d="M994.313,462.254a129.345,129.345,0,0,0,14.392-4.545l2.927-1.171.1-6.37a94.12,94.12,0,0,0-2.238-21.657l-.585-2.582-4.3,1.618c-2.376.861-6.576,2.307-9.331,3.133l-4.993,1.549.172,3.581c.1,1.928.172,8.849.172,15.356-.034,9.159.069,11.776.413,11.776.241,0,1.722-.31,3.271-.689Z" transform="translate(-282.704 -105.855)" fill="#fdfbfc"></path><path id="&#x30D1;&#x30B9;_3031" data-name="&#x30D1;&#x30B9; 3031" d="M1070.171,435.6a87.433,87.433,0,0,0,9.3-6.439c1.171-1.033,1.171-1.033.964-3.374a70.057,70.057,0,0,0-2.651-12.326c-.138-.379-.585-1.859-1.033-3.271a39.615,39.615,0,0,0-1.756-4.717,17.752,17.752,0,0,1-1-2.41,2.147,2.147,0,0,0-.276-.723c-.241-.344-.826-.138-2.514.9-1.205.723-3.512,2-5.13,2.789-1.618.826-2.961,1.515-3,1.549a15.969,15.969,0,0,0,.448,1.928c1.343,4.993,2.892,18.008,2.892,24.377,0,2.341.138,3.512.379,3.512a21.063,21.063,0,0,0,3.374-1.79Z" transform="translate(-330.431 -90.285)" fill="#fdfbfc"></path><path id="&#x30D1;&#x30B9;_3032" data-name="&#x30D1;&#x30B9; 3032" d="M982.322,357.838c5.647-1.928,9.09-3.168,9.365-3.478a12.147,12.147,0,0,0-.93-3.2c-.62-1.653-1.308-3.581-1.584-4.3-1.549-4.2-7.885-15.115-10.708-18.49l-.964-1.136-2.066,1.033c-2.341,1.171-6.508,2.961-7.678,3.34-.551.172-.758.413-.585.757,2.272,6.026,5.888,20.452,6.542,26.168l.241,2.1,1.412-.448c.792-.275,3.925-1.343,6.955-2.341Z" transform="translate(-267.511 -41.139)" fill="#fdfbfc"></path><path id="&#x30D1;&#x30B9;_3033" data-name="&#x30D1;&#x30B9; 3033" d="M618.168,337.419c-.207-2.066.516-3.719,2.858-6.749,2.892-3.719,3.409-4.786,3.34-6.99-.1-4.2-3.271-8.4-11.5-15.288a45.838,45.838,0,0,1-4.51-4.132l-.826-1.033-.241,1.756a40.089,40.089,0,0,1-1.274,5.1c-2,6.439-3.133,11.844-2.961,13.876.585,6.3,4.752,10.743,13.153,13.979,1.136.448,2.066.792,2.066.792C618.271,338.762,618.237,338.142,618.168,337.419Z" transform="translate(-28.79 -25.403)" fill="#fdfbfc"></path><path id="&#x30D1;&#x30B9;_3034" data-name="&#x30D1;&#x30B9; 3034" d="M1033.664,340.831c3.925-2.135,5.578-3.1,5.578-3.305,0-.585-3.753-6.06-6.576-9.572a94.53,94.53,0,0,0-12.843-12.877c-1.825-1.412-2.031-1.481-2.789-1.067s-.792.551-.447,1.067a99.527,99.527,0,0,1,12.981,24.412c.826,2.376,1,2.755,1.274,2.755.1,0,1.377-.654,2.823-1.412Z" transform="translate(-299.813 -32.326)" fill="#fdfbfc"></path><path id="&#x30D1;&#x30B9;_3035" data-name="&#x30D1;&#x30B9; 3035" d="M949.836,292.436c1.722-.792,3.168-1.481,3.237-1.549.448-.379-5.991-5.819-9.675-8.126-2.376-1.515-5.578-3.168-5.337-2.754,3.271,5.784,4.51,8.091,5.785,10.846,1.756,3.856,1.205,3.719,5.991,1.584Z" transform="translate(-248.453 -10.134)" fill="#fdfbfc"></path><path id="&#x30D1;&#x30B9;_3036" data-name="&#x30D1;&#x30B9; 3036" d="M819.9,648.88a10.036,10.036,0,0,1-3.65-3.478c-.654-1.24-.654-6.473,0-7.954a7.326,7.326,0,0,1,3.512-3.546c1.756-.723,6.4-.62,7.988.172,2.72,1.377,3.856,3.546,3.856,7.265s-1.136,5.888-3.856,7.265c-1.412.723-6.266.9-7.85.275Z" transform="translate(-168.271 -241.901)" fill="#fdfbfc"></path><path id="&#x30D1;&#x30B9;_3037" data-name="&#x30D1;&#x30B9; 3037" d="M746.827,560.524a15.058,15.058,0,0,1-8.711-7.575,11.914,11.914,0,0,1-1.205-5.371c-.275-5.268.9-8.746,3.96-11.81,3.271-3.305,7.988-4.683,13.187-3.925,7.472,1.067,12.051,6.542,12.051,14.358a15.058,15.058,0,0,1-2.238,8.608,11.779,11.779,0,0,1-5.337,4.717c-2.1,1.033-2.479,1.1-6.542,1.205a29.266,29.266,0,0,1-5.165-.207Z" transform="translate(-116.545 -175.169)" fill="#fdfbfc"></path><path id="&#x30D1;&#x30B9;_3038" data-name="&#x30D1;&#x30B9; 3038" d="M812.023,772.529a6.378,6.378,0,0,1-.516-1.205c-.344-.826-.275-.9.482-.9s.861.138.861,1.205C812.85,772.77,812.437,773.218,812.023,772.529Z" transform="translate(-165.352 -331.739)" fill="#fde025"></path><path id="&#x30D1;&#x30B9;_3039" data-name="&#x30D1;&#x30B9; 3039" d="M893.54,763.882c.654-1.584,1.274-1.653,1.274-.138,0,1.1-.1,1.24-.861,1.24-.826,0-.861-.034-.413-1.1Z" transform="translate(-219.083 -326.639)" fill="#fde025"></path><path id="&#x30D1;&#x30B9;_3040" data-name="&#x30D1;&#x30B9; 3040" d="M969.785,751.255c0-.723.172-.826,1.205-.826.758,0,1.205.172,1.205.448s-.551.62-1.205.826C969.854,752.082,969.785,752.047,969.785,751.255Z" transform="translate(-269.263 -318.626)" fill="#fde025"></path><path id="&#x30D1;&#x30B9;_3041" data-name="&#x30D1;&#x30B9; 3041" d="M993.785,746.118c0-.551.241-.689,1.205-.689,1.377,0,1.687.826.448,1.171C994.129,746.944,993.785,746.841,993.785,746.118Z" transform="translate(-284.999 -315.347)" fill="#fde025"></path><path id="&#x30D1;&#x30B9;_3042" data-name="&#x30D1;&#x30B9; 3042" d="M741.344,741.565c-1.136-.275-.689-1.136.585-1.136.964,0,1.205.138,1.205.689C743.134,741.806,742.652,741.91,741.344,741.565Z" transform="translate(-119.05 -312.069)" fill="#fde025"></path><path id="&#x30D1;&#x30B9;_3043" data-name="&#x30D1;&#x30B9; 3043" d="M719.49,733.462l-1.205-1,1.308-.034c1.205,0,1.274.069,1.274,1.033,0,.585-.034,1.033-.1,1.033A11.846,11.846,0,0,1,719.49,733.462Z" transform="translate(-104.358 -306.823)" fill="#fde025"></path><path id="&#x30D1;&#x30B9;_3044" data-name="&#x30D1;&#x30B9; 3044" d="M752.179,723.666c0-.723.138-.861.62-.689.31.1-.1-.413-.964-1.171l-1.549-1.343,1.308-.034c1.136,0,1.274.1,1.274.861,0,.723.172.861,1.033.861.964,0,1.033.1,1.033,1.205,0,1.171-.034,1.205-1.377,1.205C752.316,724.561,752.179,724.492,752.179,723.666Z" transform="translate(-125.34 -298.955)" fill="#fde025"></path><path id="&#x30D1;&#x30B9;_3045" data-name="&#x30D1;&#x30B9; 3045" d="M1000.785,722.019c0-1.067.138-1.274,1.033-1.618.585-.207,1.033-.551,1.033-.792,0-.413,2.445-1.343,3.064-1.136.241.1-.275.689-1.136,1.308-.861.654-1.515,1.274-1.412,1.343.1.1.516-.138.964-.516a6.517,6.517,0,0,1,2.445-1.481c.1,0,.207.344.207.723a1.917,1.917,0,0,1-1.79,1.687.581.581,0,0,0-.62.516.53.53,0,0,1-.516.516c-.275,0-.516.172-.516.344,0,.207-.62.344-1.377.344-1.343,0-1.377-.034-1.377-1.24Z" transform="translate(-289.589 -297.653)" fill="#fde025"></path><path id="&#x30D1;&#x30B9;_3046" data-name="&#x30D1;&#x30B9; 3046" d="M750.785,724.427c0-.585.1-.654.654-.344,1.1.551,1.171,1.033.241,1.033-.654,0-.9-.172-.9-.689Z" transform="translate(-125.667 -301.232)" fill="#fde025"></path><path id="&#x30D1;&#x30B9;_3047" data-name="&#x30D1;&#x30B9; 3047" d="M738.785,716.995c0-.654.31-.654,1.171,0,.654.482.654.516-.241.516-.585,0-.93-.172-.93-.516Z" transform="translate(-117.799 -296.381)" fill="#fde025"></path><path id="&#x30D1;&#x30B9;_3048" data-name="&#x30D1;&#x30B9; 3048" d="M739.866,713.531c-1.274-.758-1.205-1.1.241-1.1,1.067,0,1.205.1,1.205.861C741.312,714.288,741.105,714.323,739.866,713.531Z" transform="translate(-117.916 -293.71)" fill="#fde025"></path><path id="&#x30D1;&#x30B9;_3049" data-name="&#x30D1;&#x30B9; 3049" d="M1024.582,715.51c.275-.1.792-.344,1.136-.516.413-.207.585-.172.585.241,0,.344-.344.516-1.1.482-.62,0-.9-.1-.62-.207Z" transform="translate(-305.122 -295.31)" fill="#fde025"></path><path id="&#x30D1;&#x30B9;_3050" data-name="&#x30D1;&#x30B9; 3050" d="M1022.785,711.324c0-.792.138-.9,1.205-.9,1.825,0,1.584.448-.93,1.653C1022.888,712.151,1022.785,711.806,1022.785,711.324Z" transform="translate(-304.014 -292.398)" fill="#fde025"></path><path id="&#x30D1;&#x30B9;_3051" data-name="&#x30D1;&#x30B9; 3051" d="M935.785,699.806a4.79,4.79,0,0,1,2.238-1.377c.1,0,.172.379.172.861,0,.758-.138.861-1.205.861C936.336,700.151,935.785,700.013,935.785,699.806Z" transform="translate(-246.969 -284.53)" fill="#fde025"></path><path id="&#x30D1;&#x30B9;_3052" data-name="&#x30D1;&#x30B9; 3052" d="M1050.785,699.254c0-.172.551-.62,1.205-1.067l1.205-.758v1.033c0,.964-.1,1.033-1.205,1.033C1051.336,699.495,1050.785,699.392,1050.785,699.254Z" transform="translate(-322.373 -283.874)" fill="#fde025"></path><path id="&#x30D1;&#x30B9;_3053" data-name="&#x30D1;&#x30B9; 3053" d="M818.785,698.6c0-.826.034-.861,1.1-.413,1.584.654,1.653,1.274.138,1.274-1.1,0-1.24-.1-1.24-.861Z" transform="translate(-170.254 -284.182)" fill="#fde025"></path><path id="&#x30D1;&#x30B9;_3054" data-name="&#x30D1;&#x30B9; 3054" d="M706.785,698.995c0-.654.31-.654,1.171,0,.654.482.654.516-.241.516-.585,0-.93-.172-.93-.516Z" transform="translate(-96.817 -284.579)" fill="#fde025"></path><path id="&#x30D1;&#x30B9;_3055" data-name="&#x30D1;&#x30B9; 3055" d="M708.06,695.7c-1.446-.964-1.412-1.274.069-1.274,1.1,0,1.205.069,1.205,1.033a3.436,3.436,0,0,1-.069,1A7.949,7.949,0,0,1,708.06,695.7Z" transform="translate(-96.956 -281.907)" fill="#fde025"></path><path id="&#x30D1;&#x30B9;_3056" data-name="&#x30D1;&#x30B9; 3056" d="M1050.785,697.118c0-.516.241-.689.861-.689.482,0,.861.069.861.138a3.152,3.152,0,0,1-.861.689C1050.819,697.806,1050.785,697.806,1050.785,697.118Z" transform="translate(-322.373 -283.219)" fill="#fde025"></path><path id="&#x30D1;&#x30B9;_3057" data-name="&#x30D1;&#x30B9; 3057" d="M809.785,696.121c0-.723.551-.861,2-.482,1.343.379.93,1.171-.62,1.171C810.026,696.809,809.785,696.706,809.785,696.121Z" transform="translate(-164.353 -282.566)" fill="#fde025"></path><path id="&#x30D1;&#x30B9;_3058" data-name="&#x30D1;&#x30B9; 3058" d="M936.785,655.044a13.752,13.752,0,0,1,1.308-2.651c1.687-2.927,4.889-9.469,4.889-9.985a4.027,4.027,0,0,1,.413-1.274c.31-.723.62-.861,1.756-.861a13.231,13.231,0,0,0,2.789-.379c3.271-.861,3.96-1.033,6.921-1.894a63.581,63.581,0,0,0,7.2-2.341c2.479-.93,3.305-.964,3.305-.069,0,.448-2.2,4.063-4.235,6.921-.379.551-1.308,1.859-2,2.927a46.551,46.551,0,0,1-3.753,4.579l-2.479,2.651h-2.272a39.114,39.114,0,0,0-11.018,1.894c-2.72.964-2.823,1-2.823.482Z" transform="translate(-247.625 -242.901)" fill="#fde025"></path><path id="&#x30D1;&#x30B9;_3059" data-name="&#x30D1;&#x30B9; 3059" d="M687.785,683.634c0-.654.172-1.205.344-1.205a.318.318,0,0,1,.344.31,3.91,3.91,0,0,0,.861,1.205l.826.9H688.99C687.854,684.839,687.785,684.77,687.785,683.634Z" transform="translate(-84.359 -274.039)" fill="#fde025"></path><path id="&#x30D1;&#x30B9;_3060" data-name="&#x30D1;&#x30B9; 3060" d="M691.628,683.29c-.551-.826-.551-.861.138-.861.516,0,.689.241.689.861,0,.482-.069.861-.138.861A3.153,3.153,0,0,1,691.628,683.29Z" transform="translate(-86.619 -274.039)" fill="#fde025"></path><path id="&#x30D1;&#x30B9;_3061" data-name="&#x30D1;&#x30B9; 3061" d="M1067.851,678.667a.5.5,0,0,0-.448-.516,3.1,3.1,0,0,1-1.618-1.549c0-.1.207-.172.482-.172.689,0,2.72,2,2.445,2.41C1068.4,679.356,1067.851,679.252,1067.851,678.667Z" transform="translate(-332.209 -270.105)" fill="#fde025"></path><path id="&#x30D1;&#x30B9;_3062" data-name="&#x30D1;&#x30B9; 3062" d="M1070.673,664.9a4.887,4.887,0,0,0-1.412-1.859c-1.377-1.24-1.412-1.377-1.136-2.651a9.9,9.9,0,0,0,.241-1.756c0-.241.1-.379.241-.275.138.069.516-.551.861-1.377.482-1.274.723-1.549,1.446-1.549.654,0,.826.138.654.551-.172.482-.138.516.31.138s.516-.276.516.757a3.161,3.161,0,0,1-.62,1.859c-1.412,1.549-1.756,4.27-.551,4.27.31,0,.482.413.482,1.205,0,.826-.172,1.205-.516,1.205a.53.53,0,0,1-.517-.516Z" transform="translate(-333.654 -256.335)" fill="#fde025"></path><path id="&#x30D1;&#x30B9;_3063" data-name="&#x30D1;&#x30B9; 3063" d="M693.6,667.759c-.654-1.205-.344-1.859.379-.861.448.654.689,1.928.31,1.928A3.3,3.3,0,0,1,693.6,667.759Z" transform="translate(-87.939 -263.535)" fill="#fde025"></path><path id="&#x30D1;&#x30B9;_3064" data-name="&#x30D1;&#x30B9; 3064" d="M697.24,668.426a6.772,6.772,0,0,0-.207-1.205c-.172-.585-.069-.792.344-.792s.551.31.551,1.205c0,.654-.138,1.205-.344,1.205A.413.413,0,0,1,697.24,668.426Z" transform="translate(-90.371 -263.548)" fill="#fde025"></path><path id="&#x30D1;&#x30B9;_3065" data-name="&#x30D1;&#x30B9; 3065" d="M682.677,653.148c-.379-.551-.516-.585-.379-.172.172.448.034.585-.62.585-1,0-1.894-1.481-1.894-3.1,0-1.136.448-1.343,1.033-.413.379.551.379.551.207,0-.138-.482,0-.62.654-.62.551,0,.861.207.861.516a2.144,2.144,0,0,0,.654,1.171,4.783,4.783,0,0,1,.826,1.1q.207.516.207-.1a.666.666,0,0,1,.723-.62c.551,0,.689.241.689,1.205,0,1.274-.861,1.722-1.136.62-.138-.585-.172-.585-.207,0-.034.826-.93.723-1.618-.172Z" transform="translate(-79.114 -252.401)" fill="#fde025"></path><path id="&#x30D1;&#x30B9;_3066" data-name="&#x30D1;&#x30B9; 3066" d="M1063.686,653.29c.31-.482.792-.861,1.033-.861.276,0,.482.344.482.861,0,.723-.172.861-1.033.861C1063.135,654.151,1063.135,654.151,1063.686,653.29Z" transform="translate(-330.592 -254.368)" fill="#fde025"></path><path id="&#x30D1;&#x30B9;_3067" data-name="&#x30D1;&#x30B9; 3067" d="M1060.133,435.1a28.111,28.111,0,0,1,0-3.891c.241-5.2-1.24-18.352-2.686-24-1.1-4.3-1.205-4.132,2.961-6.266,2-1,4.579-2.445,5.716-3.168a10.047,10.047,0,0,1,2.513-1.343c.275,0,.9,1.033,1.412,2.341a18.139,18.139,0,0,0,1.205,2.651,30.439,30.439,0,0,1,1.205,3.443c.516,1.722,1.067,3.409,1.205,3.787,1.412,3.615,3.443,15.529,2.823,16.527-1.033,1.687-11.466,8.814-14.082,9.606a2.932,2.932,0,0,0-1.136.723c-.62.758-.93.62-1.136-.413Z" transform="translate(-326.316 -86.513)" fill="#735825"></path><path id="&#x30D1;&#x30B9;_3068" data-name="&#x30D1;&#x30B9; 3068" d="M979.785,311.29c0-.689.172-.861.861-.861,1.033,0,1.171.861.207,1.377C979.888,312.288,979.785,312.254,979.785,311.29Z" transform="translate(-275.82 -30.124)" fill="#fde025"></path><path id="&#x30D1;&#x30B9;_3069" data-name="&#x30D1;&#x30B9; 3069" d="M938.574,294.634l-.689-1.205h1c.964,0,1.033.1,1.033,1.205,0,.654-.138,1.205-.31,1.205S938.987,295.288,938.574,294.634Z" transform="translate(-248.346 -18.977)" fill="#fde025"></path><g id="&#x30B0;&#x30EB;&#x30FC;&#x30D7;_1695" data-name="&#x30B0;&#x30EB;&#x30FC;&#x30D7; 1695" transform="translate(593 267.222)"><path id="&#x30D1;&#x30B9;_3070" data-name="&#x30D1;&#x30B9; 3070" d="M711.831,674.328a17.278,17.278,0,0,0-3.719-7.988c-1.894-2-2.548-2.2-15.219-4.855-12.464-2.617-11.707-2.272-16.114-7.162a58.053,58.053,0,0,0-5.061-4.614,58,58,0,0,1-5.647-5.165c-2.135-2.341-2.238-2.513-3.1-5.991a64.936,64.936,0,0,0-2.238-6.921c-1.618-4.1-3.478-9.985-3.2-10.261a3.9,3.9,0,0,1,1.481-.172h1.274l-.138-1.928c-.275-2.892.861-3.65,3.2-2.2A5.254,5.254,0,0,1,665.9,621.1a26.047,26.047,0,0,0,1.859,4.786,16.686,16.686,0,0,1,1.549,3.96,16.936,16.936,0,0,0,.861,3.237c1.171,3.271,1.067,3.856-.241,1.446-1.308-2.376-1.618-2.445-.448-.069,1.033,2.135,1.033,2.169,0,2.651-.689.31-.861.654-.861,1.584,0,1.412,1.067,2.479,5.475,5.475,1.618,1.1,3.891,2.651,5.027,3.443a16.657,16.657,0,0,0,2.927,1.653,42.9,42.9,0,0,1,8.195,4.338c2.961,2,3.443,2.169,1.377.413a32.636,32.636,0,0,0-8.367-4.993,36.811,36.811,0,0,1-5.337-3c-1.24-.9-3.1-2.1-4.166-2.72-2.41-1.377-4.786-3.615-4.786-4.545s1.205-1.653,3.512-2.1c2.479-.516,6.026.241,9.228,1.928,1.24.654,3.65,1.928,5.337,2.823l3.1,1.653h9.3c9.882,0,10.674.1,14.978,1.825,6.886,2.755,11.052,7.919,14.461,17.973.826,2.376,2.307,6.232,3.34,8.608,1.067,2.376,1.963,4.648,2.066,5.061l.172.757-10.984.034H712.52Zm-44.038-43.315a18.261,18.261,0,0,1-1.24-2.479q-.723-1.653-.516-.62c.241,1.067,1.756,3.96,2.135,3.96C668.276,631.874,668.1,631.5,667.793,631.014Zm-2.376-5.578a7.581,7.581,0,0,0-2.169-2.513c-.138,0,.241.516.826,1.171a7.291,7.291,0,0,1,1.274,1.928c.138.413.31.654.413.585a2.224,2.224,0,0,0-.344-1.171Z" transform="translate(-657.506 -497.936)" fill="#f99e4b"></path><path id="&#x30D1;&#x30B9;_3071" data-name="&#x30D1;&#x30B9; 3071" d="M882.785,677.256a5.516,5.516,0,0,1,.62-1.446A121.489,121.489,0,0,0,888.6,663c2.135-6.232,4.166-9.813,7.437-13.153a15.768,15.768,0,0,1,5.371-4.063c4.752-2.2,6.232-2.445,16.665-2.445h9.3l4.166-2.272c7.2-3.96,9.985-4.82,13.325-4.1,2.169.448,4.166,1.963,3.822,2.892a12.292,12.292,0,0,1-2.823,2.238c-1.481.964-3.994,2.686-5.647,3.822a37.165,37.165,0,0,1-5.509,3.133,35.233,35.233,0,0,0-4.063,1.928c-1.825,1.033-6.232,4.3-6.06,4.476a21.819,21.819,0,0,0,3.168-1.894,49.581,49.581,0,0,1,6.335-3.478,31.923,31.923,0,0,0,4.993-2.72c1.722-1.274,2.72-1.963,6.542-4.373,3.96-2.513,4.476-3.512,2.582-5.1a3.347,3.347,0,0,1-1.033-1.274c0-.585,1.343-3.1,2.582-4.855a9.309,9.309,0,0,0,1.377-2.755,15.371,15.371,0,0,1,2.031-4.476c.207-.275-.034-.1-.551.448a8.011,8.011,0,0,0-1.515,2.927,18.472,18.472,0,0,1-2,4.2c-.758,1.24-1.687,2.789-2,3.443-.516,1.136-.551,1.171-.585.379a6.8,6.8,0,0,1,.654-2.307,18.065,18.065,0,0,0,1-3.409,15.176,15.176,0,0,1,1.377-3.719,22.193,22.193,0,0,0,2.238-6.129c.482-2.238,3.409-4.235,4.958-3.409.551.275.62.654.482,2.41l-.138,2.1H958.5c.758,0,1.412.172,1.412.344a79.842,79.842,0,0,1-3.409,10.674,43.069,43.069,0,0,0-1.928,6.026,24.027,24.027,0,0,1-1.1,3.753c-.723,1.377-5.2,5.75-8.539,8.367a47.986,47.986,0,0,0-5.13,4.786c-3.374,3.684-4.132,4.1-10.088,5.268-16.975,3.409-16.527,3.271-19.247,5.13-2.651,1.825-4.166,4.648-5.1,9.537l-.379,2.066-11.121.1c-7.093.034-11.087-.034-11.087-.275Z" transform="translate(-805.218 -498.213)" fill="#f99e4b"></path><path id="&#x30D1;&#x30B9;_3072" data-name="&#x30D1;&#x30B9; 3072" d="M1016.845,683.779c.069-.034.93-.551,1.859-1.1,1.171-.654,1.584-.792,1.24-.344a5.726,5.726,0,0,1-2.823,1.584c-.241,0-.344-.069-.275-.138Z" transform="translate(-893.106 -541.026)" fill="#f99e4b"></path><path id="&#x30D1;&#x30B9;_3073" data-name="&#x30D1;&#x30B9; 3073" d="M694.544,659.178a8.218,8.218,0,0,0-.723-2.272,12.86,12.86,0,0,1-.9-3c-.172-1.412-.138-1.481.689-1.481,1.136,0,2.513,1.653,3,3.546a12.043,12.043,0,0,0,.861,2.341l.516.9-1.722.344C694.648,659.9,694.544,659.866,694.544,659.178Z" transform="translate(-680.676 -521.59)" fill="#f99e4b"></path><path id="&#x30D1;&#x30B9;_3074" data-name="&#x30D1;&#x30B9; 3074" d="M1058.331,659.5l-1.446-.31.482-1.1c.241-.62.723-1.79,1-2.651.9-2.41,1.756-3.271,3.271-3.133.654.034.275,2.686-.654,4.51a6.258,6.258,0,0,0-.689,2.238c0,.482-.1.861-.241.826C1059.88,659.843,1059.123,659.7,1058.331,659.5Z" transform="translate(-919.373 -521.497)" fill="#f99e4b"></path><path id="&#x30D1;&#x30B9;_3075" data-name="&#x30D1;&#x30B9; 3075" d="M965.037,626.454c0-.379-.138-.689-.31-.689s-.069-.757.241-1.722c.723-2.341,1.618-2.376,1.343-.069l-.207,1.618,1.377-.1c1.963-.207,1.825.757-.172,1.274-2.066.516-2.272.482-2.272-.31Z" transform="translate(-858.892 -501.812)" fill="#f99e4b"></path><path id="&#x30D1;&#x30B9;_3076" data-name="&#x30D1;&#x30B9; 3076" d="M977.785,627.495c0-.551.241-.689,1.205-.689.654,0,1.205-.1,1.205-.275,0-.344,2.513-1.1,3.615-1.1,1.584,0,.93.93-1.1,1.515-1.1.344-2.445.758-3,.93-1.481.482-1.928.379-1.928-.379Z" transform="translate(-867.509 -503.886)" fill="#f99e4b"></path><path id="&#x30D1;&#x30B9;_3077" data-name="&#x30D1;&#x30B9; 3077" d="M1000.785,623.118c0-.551.241-.689,1.205-.689,1.343,0,1.584.482.551,1.033C1001.474,624.013,1000.785,623.875,1000.785,623.118Z" transform="translate(-882.589 -501.919)" fill="#f99e4b"></path><path id="&#x30D1;&#x30B9;_3078" data-name="&#x30D1;&#x30B9; 3078" d="M681.13,619.575c-.138-.241-.516-.826-.792-1.308-.344-.516-.379-.723-.1-.551.448.241,1.584,2.272,1.308,2.272C681.44,619.988,681.268,619.781,681.13,619.575Z" transform="translate(-672.289 -498.79)" fill="#f99e4b"></path><path id="&#x30D1;&#x30B9;_3079" data-name="&#x30D1;&#x30B9; 3079" d="M1026.785,612.29c0-.689.172-.861.861-.861.654,0,.792.138.62.62C1027.784,613.323,1026.785,613.495,1026.785,612.29Z" transform="translate(-899.637 -494.707)" fill="#f99e4b"></path><path id="&#x30D1;&#x30B9;_3080" data-name="&#x30D1;&#x30B9; 3080" d="M1048.785,533.931a11.139,11.139,0,0,1,.689-2.479c1.584-4.27,3.753-14.22,4.476-20.487l.413-3.546,4.028-2.1a82.15,82.15,0,0,0,10.949-6.714c2.135-1.756,2.513-1.618,2.513,1a108.661,108.661,0,0,1-2.066,16.079c-.723,2.823-.826,3-3.374,5.612-1.446,1.515-2.892,2.961-3.168,3.271a94.535,94.535,0,0,1-8.952,6.921c-1.033.654-2.582,1.618-3.409,2.169C1049.06,534.791,1048.785,534.826,1048.785,533.931Z" transform="translate(-914.062 -419.963)" fill="#f24998"></path><path id="&#x30D1;&#x30B9;_3081" data-name="&#x30D1;&#x30B9; 3081" d="M1033.785,588.144c0-.689.138-1.24.31-1.24.138,0,.379-.689.482-1.549.172-1.825.31-2,1.171-1.825.654.1.654.207-.207,2.823-1,3.03-1.756,3.787-1.756,1.79Z" transform="translate(-904.227 -476.38)" fill="#f99e4b"></path><path id="&#x30D1;&#x30B9;_3082" data-name="&#x30D1;&#x30B9; 3082" d="M974.785,583.386c0-.172.241-1.481.516-2.961s.516-2.789.516-2.858.241-.138.516-.138c.62,0,.654.654.138,3.822-.344,1.928-.516,2.376-1.033,2.376C975.06,583.627,974.785,583.523,974.785,583.386Z" transform="translate(-865.541 -472.413)" fill="#f99e4b"></path><path id="&#x30D1;&#x30B9;_3083" data-name="&#x30D1;&#x30B9; 3083" d="M1040.785,570.634c0-.964.138-1.205.689-1.205.723,0,.826.344.482,1.653C1041.611,572.321,1040.785,572.011,1040.785,570.634Z" transform="translate(-908.817 -467.168)" fill="#f99e4b"></path><path id="&#x30D1;&#x30B9;_3084" data-name="&#x30D1;&#x30B9; 3084" d="M980.069,553.286c.413-2.892.585-3.374,1.067-3.374a.471.471,0,0,0,.482-.482c0-.344,1-.723,3.064-1.205,3.719-.9,3.822-.9,3.822-.1,0,.516-.516.758-2.686,1.205a28.919,28.919,0,0,1-3.409.585c-.654,0-.758.241-.964,2.41-.207,2.1-.344,2.41-.93,2.41C979.9,554.732,979.862,554.56,980.069,553.286Z" transform="translate(-868.931 -452.815)" fill="#f99e4b"></path><path id="&#x30D1;&#x30B9;_3085" data-name="&#x30D1;&#x30B9; 3085" d="M1044.785,549.251c0-.344.1-1.343.207-2.238.172-1.274.379-1.584.9-1.584.723,0,.723.172.069,3.546-.207,1.033-1.171,1.274-1.171.275Z" transform="translate(-911.44 -451.431)" fill="#f99e4b"></path><path id="&#x30D1;&#x30B9;_3086" data-name="&#x30D1;&#x30B9; 3086" d="M1006.785,543.894c0-.344,1.033-.792,3.064-1.412,3.684-1.1,3.822-1.1,3.822-.276,0,.689-.861,1.067-2.479,1.067-.482,0-.964.172-1.033.379s-.861.448-1.756.551c-1.274.138-1.618.069-1.618-.31Z" transform="translate(-886.523 -448.933)" fill="#f99e4b"></path><path id="&#x30D1;&#x30B9;_3087" data-name="&#x30D1;&#x30B9; 3087" d="M1034.785,535.317c0-.207.344-.482.792-.654.413-.172,1.584-.654,2.617-1.033,2.066-.792,2.617-.62,2.272.757-.241.861-.344.9-1.756.689-1.033-.138-1.515-.069-1.515.207,0,.207-.551.379-1.205.379s-1.205-.172-1.205-.344Z" transform="translate(-904.883 -443.385)" fill="#f99e4b"></path><path id="&#x30D1;&#x30B9;_3088" data-name="&#x30D1;&#x30B9; 3088" d="M936.122,290.609c-.207-.241-1.067-2.031-2-3.994-.9-1.963-1.963-4.166-2.376-4.889a81.785,81.785,0,0,0-4.2-7.127c-.723-.964-1.1-2.169-.689-2.169a53.278,53.278,0,0,1,8.229,3.856c4.373,2.651,11.6,8.711,11.6,9.744,0,.482-3.34,2.2-7.747,3.994C936.122,291.194,936.535,291.125,936.122,290.609Z" transform="translate(-834.006 -272.429)" fill="#f99e4b"></path><path id="&#x30D1;&#x30B9;_3089" data-name="&#x30D1;&#x30B9; 3089" d="M991.556,298.036l-1.171-1.205h1.24c.689,0,1.343.207,1.412.448.1.241.207.172.207-.172.034-.792.448-.792,1.446.034l.826.654-.861.723c-1.205,1-1.756.9-3.1-.482Z" transform="translate(-875.77 -288.223)" fill="#f99e4b"></path><path id="&#x30D1;&#x30B9;_3090" data-name="&#x30D1;&#x30B9; 3090" d="M983.4,289.678a1.37,1.37,0,0,1-.62-.861c0-.551,1.033-.482,1.24.138C984.369,289.782,984.024,290.16,983.4,289.678Z" transform="translate(-870.787 -282.93)" fill="#f99e4b"></path></g><g id="&#x30B0;&#x30EB;&#x30FC;&#x30D7;_1696" data-name="&#x30B0;&#x30EB;&#x30FC;&#x30D7; 1696" transform="translate(559.127 275.22)"><path id="&#x30D1;&#x30B9;_3091" data-name="&#x30D1;&#x30B9; 3091" d="M559.147,468.834a5.658,5.658,0,0,1,.654-2.341c.792-1.618,1.584-5.44,2.651-12.5a115.017,115.017,0,0,1,2.1-11.776,26.714,26.714,0,0,0,.654-3.064,17.5,17.5,0,0,1,1.481-3.478c3.65-7.4,10.4-11.4,20.314-12.051a69.458,69.458,0,0,1,14.805,1.308,42.068,42.068,0,0,0,4.373.654c1.24,0,1.687.654.826,1.274-.482.344-1.618.448-4.338.379l-3.684-.1-1.136,1.1a3.142,3.142,0,0,0-1.1,2.927,33.773,33.773,0,0,0,1.033,5.612c1.343,5.2,1.412,10.192.138,12.74a19.892,19.892,0,0,1-4.752,6.335c-3.512,3.1-12.326,6.473-24.171,9.331a28.969,28.969,0,0,0-6.37,2.548c-2.307,1.377-3.271,1.653-3.478,1.1Z" transform="translate(-559.127 -379.53)" fill="#a7d05a"></path><path id="&#x30D1;&#x30B9;_3092" data-name="&#x30D1;&#x30B9; 3092" d="M619.558,336.726c-.1-.069-1.963-.585-4.166-1.171-4.235-1.067-8.367-2.582-9.262-3.34a1.65,1.65,0,0,0-.9-.482c-.62,0-4.683-3.443-5.819-4.958a13.2,13.2,0,0,1-2.479-7.644c-.172-3.168.516-6.68,2.755-14.082a45.638,45.638,0,0,0,1.549-6.955c.241-3.168.379-3.2,2.651-.344a55.668,55.668,0,0,0,4.993,4.717c8.849,7.368,11.431,11.052,11.534,16.32.034,3.271-.207,3.822-3.409,7.954-2.376,3.03-3.168,4.889-2.617,5.957a6.438,6.438,0,0,0,3.65,1.79,1.8,1.8,0,0,1,1.033.792c.516.689.585.723.9.172.516-.93,1-.723,1,.413,0,.757-.172,1.033-.62,1.033a1.334,1.334,0,0,1-.792-.172Z" transform="translate(-583.902 -295.66)" fill="#a7d05a"></path></g><path id="&#x30D1;&#x30B9;_3093" data-name="&#x30D1;&#x30B9; 3093" d="M890.785,726.634c0-1.171.034-1.205,1.274-1.205h1.274l-1.171,1.205a12.1,12.1,0,0,1-1.274,1.205A3.321,3.321,0,0,1,890.785,726.634Z" transform="translate(-217.464 -302.233)" fill="#4fa5dc"></path><path id="&#x30D1;&#x30B9;_3094" data-name="&#x30D1;&#x30B9; 3094" d="M858.542,716.634l-.757-1.205h1.033c.964,0,1.033.1,1.033,1.205C859.851,718.149,859.541,718.149,858.542,716.634Z" transform="translate(-195.826 -295.677)" fill="#4fa5dc"></path><path id="&#x30D1;&#x30B9;_3095" data-name="&#x30D1;&#x30B9; 3095" d="M836.785,676.606a.608.608,0,0,1,.654-.689,4.409,4.409,0,0,0,1.205-.207c.413-.172.551,0,.551.689,0,.792-.138.9-1.205.9C837.026,677.295,836.785,677.157,836.785,676.606Z" transform="translate(-182.056 -269.593)" fill="#4fa5dc"></path><path id="&#x30D1;&#x30B9;_3096" data-name="&#x30D1;&#x30B9; 3096" d="M855.485,656.634c.1-.9.31-1.205.792-1.205.516,0,.654.241.654,1.205,0,1.033-.1,1.205-.792,1.205S855.347,657.7,855.485,656.634Z" transform="translate(-194.283 -256.335)" fill="#4fa5dc"></path><path id="&#x30D1;&#x30B9;_3097" data-name="&#x30D1;&#x30B9; 3097" d="M983.887,461.473a29.289,29.289,0,0,1,.172-4.407c.344-4.407.1-23.241-.379-26.271q-.258-1.808.1-2.066c.207-.138,2.548-.9,5.2-1.722s7.127-2.341,9.916-3.409c2.823-1.067,5.234-1.79,5.371-1.618a41.825,41.825,0,0,1,1.722,7.713,84.25,84.25,0,0,1,1.343,17.87l-.1,7.4-2.927,1.171a138.21,138.21,0,0,1-15.735,4.889c-3.443.758-4.442.826-4.683.448Z" transform="translate(-278.303 -103.25)" fill="#4fa5dc"></path><path id="&#x30D1;&#x30B9;_3098" data-name="&#x30D1;&#x30B9; 3098" d="M772.785,497.324c0-.448.964-.9,2-.9.207,0,.413.31.413.689,0,.551-.241.689-1.205.689C773.2,497.806,772.785,497.634,772.785,497.324Z" transform="translate(-140.093 -152.081)" fill="#4fa5dc"></path><path id="&#x30D1;&#x30B9;_3099" data-name="&#x30D1;&#x30B9; 3099" d="M702.026,477.811a2.82,2.82,0,0,1-.241-1.412v-1.171l1.343,1.136a5.543,5.543,0,0,1,1.377,1.446c.034.31-2.169.344-2.479,0Z" transform="translate(-93.539 -138.181)" fill="#4fa5dc"></path><path id="&#x30D1;&#x30B9;_3100" data-name="&#x30D1;&#x30B9; 3100" d="M664.436,401.631c.9-2.169,1.481-3.2,1.825-3.2.448,0,.448,2.031-.034,3.409-.31.861-.551,1.067-1.343,1.067h-1Z" transform="translate(-68.688 -87.824)" fill="#4fa5dc"></path><path id="&#x30D1;&#x30B9;_3101" data-name="&#x30D1;&#x30B9; 3101" d="M1022.273,337.953a98.276,98.276,0,0,0-13.359-25.169c-.585-.689-.964-1.481-.861-1.722a5.632,5.632,0,0,1,1.584-1.412c1.722-1.205,1.928-1.136,5.681,2,7.265,6.06,15.287,15.46,18.558,21.8.93,1.756,1.24,1.481-6.163,5.475a24.194,24.194,0,0,1-3.994,1.859C1023.409,340.776,1022.858,339.709,1022.273,337.953Z" transform="translate(-294.343 -29.138)" fill="#425a43"></path><path id="&#x30D1;&#x30B9;_3102" data-name="&#x30D1;&#x30B9; 3102" d="M702.785,365.669c0-1.171.069-1.24,1.205-1.24a3.321,3.321,0,0,1,1.205.1c0,.034-.551.585-1.205,1.24l-1.205,1.136v-1.24Z" transform="translate(-94.195 -65.531)" fill="#4fa5dc"></path><path id="&#x30D1;&#x30B9;_3103" data-name="&#x30D1;&#x30B9; 3103" d="M783.011,351.634c-1.481-.62-1.446-1.205.069-1.205,1.067,0,1.205.1,1.205.861a2.848,2.848,0,0,1-.069.861C784.147,352.116,783.6,351.91,783.011,351.634Z" transform="translate(-146.083 -56.351)" fill="#4fa5dc"></path><path id="&#x30D1;&#x30B9;_3104" data-name="&#x30D1;&#x30B9; 3104" d="M851.785,266.324c0-.448.964-.9,2-.9.207,0,.413.31.413.689,0,.551-.241.689-1.205.689C852.2,266.806,851.785,266.634,851.785,266.324Z" transform="translate(-191.892 -0.618)" fill="#4fa5dc"></path><path id="&#x30D1;&#x30B9;_3105" data-name="&#x30D1;&#x30B9; 3105" d="M828.84,691.6c-1.308-.689-1.205-1.171.241-1.171,1.067,0,1.205.1,1.205.861C830.286,692.288,830.114,692.323,828.84,691.6Z" transform="translate(-176.246 -279.284)" fill="#57be81"></path><path id="&#x30D1;&#x30B9;_3106" data-name="&#x30D1;&#x30B9; 3106" d="M999.785,624.044a11.087,11.087,0,0,1,1.653-2.169,90.879,90.879,0,0,0,10.708-16.6l1.446-2.927,3.856-2.031a97.475,97.475,0,0,0,13.049-8.5c2.789-2.341,3.064-1.618.93,2.582a90.574,90.574,0,0,1-10.295,15.873c-3.478,4.235-11.741,12.017-14.014,13.222-.9.448-7.334.964-7.334.551Z" transform="translate(-288.933 -213.76)" fill="#dab95a"></path><path id="&#x30D1;&#x30B9;_3107" data-name="&#x30D1;&#x30B9; 3107" d="M695.821,641.043l-1.136-1.377.93-.1c1.205-.172,1.584.275,1.446,1.687l-.1,1.171-1.136-1.377Z" transform="translate(-88.883 -245.909)" fill="#57be81"></path><path id="&#x30D1;&#x30B9;_3108" data-name="&#x30D1;&#x30B9; 3108" d="M667.374,515.645c1.928-2.617,2.1-2.686,2.1-1.033,0,1.412-.516,1.963-1.825,1.963h-.964l.689-.93Z" transform="translate(-70.524 -163.275)" fill="#57be81"></path><path id="&#x30D1;&#x30B9;_3109" data-name="&#x30D1;&#x30B9; 3109" d="M675.785,449.118a.689.689,0,1,1,.689.689A.618.618,0,0,1,675.785,449.118Z" transform="translate(-76.491 -120.608)" fill="#57be81"></path><path id="&#x30D1;&#x30B9;_3110" data-name="&#x30D1;&#x30B9; 3110" d="M681.785,448.606c0-.654,1.1-1.033,1.446-.482.448.723.31.964-.585.964-.516,0-.861-.207-.861-.482Z" transform="translate(-80.425 -120.234)" fill="#57be81"></path><path id="&#x30D1;&#x30B9;_3111" data-name="&#x30D1;&#x30B9; 3111" d="M967.222,358.985a15.439,15.439,0,0,1-.379-2.272c-.62-5.3-3.34-16.424-5.716-23.585a38.641,38.641,0,0,1-1.343-4.407c0-.241.344-.585.792-.757,3.96-1.618,6.335-2.686,8.573-3.822a9.1,9.1,0,0,1,3.1-1.136c.482.172,3.374,4.063,5.543,7.437a124.047,124.047,0,0,1,6.576,12.6c2.376,6.473,2.961,8.16,2.961,8.711,0,.413-.413.826-1.1,1.136a88.617,88.617,0,0,1-9.744,3.615c-2.445.792-5.027,1.618-5.681,1.825-1.963.62-3.443.9-3.581.654Z" transform="translate(-262.706 -38.36)" fill="#57be81"></path><path id="&#x30D1;&#x30B9;_3112" data-name="&#x30D1;&#x30B9; 3112" d="M962.785,411.607c0-1.377.826-1.687,1.171-.413s.241,1.618-.482,1.618C962.923,412.813,962.785,412.571,962.785,411.607Z" transform="translate(-264.673 -95.666)" fill="#57be81"></path><path id="&#x30D1;&#x30B9;_3113" data-name="&#x30D1;&#x30B9; 3113" d="M663.665,410.622c-.93-.172-.9-.069-.413-1.412a2.284,2.284,0,0,1,.861-1.24c.379-.138.482.172.482,1.343a8.574,8.574,0,0,1-.069,1.515,5.115,5.115,0,0,0-.861-.207Z" transform="translate(-68.055 -94.061)" fill="#57be81"></path><path id="&#x30D1;&#x30B9;_3114" data-name="&#x30D1;&#x30B9; 3114" d="M724.6,425.193a20.086,20.086,0,0,1-1.343-2.479c-1.377-2.789-5.681-7.265-8.677-9.055a25.958,25.958,0,0,0-8.5-3.03c-.757-.138-5.165-.344-9.813-.516-8.78-.275-10.433-.516-14.909-1.963-3.168-1-4.82-2.2-9.021-6.439-4.683-4.717-11.018-13.015-13.291-17.491-1.618-3.1-2.135-4.2-3.409-7.127a70.262,70.262,0,0,1-3.615-10.02c-.689-2.445-2.238-9.434-2.238-10.123a8.4,8.4,0,0,1,2-1.205,14.8,14.8,0,0,0,6.99-7.127l1.515-3v-4.683a25.388,25.388,0,0,0-.792-7.506c-.758-2.823-.964-5.1-.482-5.371a4.872,4.872,0,0,1,1.618-.275l1.343-.138,1.343,2.72a25.4,25.4,0,0,0,18.421,14.358,20.49,20.49,0,0,0,9.365.172,28.327,28.327,0,0,0,9.021-3.34,3.784,3.784,0,0,1,1.1-.654c.344,0,2.307-1.756,4.338-3.822a24.7,24.7,0,0,0,6.886-17.7,23.793,23.793,0,0,0-2.789-11.81,18.937,18.937,0,0,0-4.166-5.922,23.072,23.072,0,0,0-6.817-5.268A23.5,23.5,0,0,0,686.8,293.6a22.011,22.011,0,0,0-6.817.758,26.064,26.064,0,0,0-18.834,20.831,6.6,6.6,0,0,1-.654,2.307,29.4,29.4,0,0,1-5.543-1.274c-.344-.344-.034-2.169.379-2.169.172,0,.551-.826.826-1.859a58.424,58.424,0,0,1,5.716-10.949,82.767,82.767,0,0,1,26.856-25.72,81.213,81.213,0,0,1,42.936-10.984,34.954,34.954,0,0,1,5.475.551c1.274.689,7.4,10.123,10.295,15.907A130.877,130.877,0,0,1,759.311,319.9c2.582,17.767,2.031,39.08-1.412,54.4-2.651,11.776-5.234,19.66-9.159,27.855-1.033,2.135-1.859,3.96-1.859,4.063,0,.138-3.409,5.922-4.993,8.47a68.329,68.329,0,0,1-6.439,8.264l-2.445,2.651h-4.029c-2.823,0-4.132-.138-4.373-.413Zm-5.991-20.728a7.762,7.762,0,0,0,2.135-5.165,6.86,6.86,0,0,0-6.921-6.749,6.634,6.634,0,0,0-6.4,4.028,9.658,9.658,0,0,0,0,5.922c.757,1.446,3.133,3.409,4.407,3.615,3.271.551,4.648.207,6.783-1.653Zm-19.247-21.141a16.365,16.365,0,0,0,3.168-2.031,14.079,14.079,0,0,0,3.856-13.91,13.538,13.538,0,0,0-22.621-5.75c-7.265,7.3-4.1,19.385,5.957,22.69a18.3,18.3,0,0,0,4.132.172c2.858-.069,3.546-.207,5.509-1.171Z" transform="translate(-59.443)" fill="#2ea9b8"></path><path id="&#x30D1;&#x30B9;_3115" data-name="&#x30D1;&#x30B9; 3115" d="M1026.274,679.152c.379-.379.792-.723.964-.723.482,0-.034.654-.861,1.067C1025.62,679.91,1025.62,679.91,1026.274,679.152Z" transform="translate(-305.988 -271.416)" fill="#2ea9b8"></path><path id="&#x30D1;&#x30B9;_3116" data-name="&#x30D1;&#x30B9; 3116" d="M985.085,520.612c0-.861.069-1.205.138-.757a5.836,5.836,0,0,1,0,1.549C985.154,521.817,985.085,521.473,985.085,520.612Z" transform="translate(-279.295 -167.312)" fill="#2ea9b8"></path><path id="&#x30D1;&#x30B9;_3117" data-name="&#x30D1;&#x30B9; 3117" d="M1039.515,368.585c-.344-1.033-.344-1.067.1-.482s.723,1.584.413,1.584A6.9,6.9,0,0,1,1039.515,368.585Z" transform="translate(-314.822 -67.689)" fill="#2ea9b8"></path><g id="&#x30B0;&#x30EB;&#x30FC;&#x30D7;_1697" data-name="&#x30B0;&#x30EB;&#x30FC;&#x30D7; 1697" transform="translate(698.496 272.792)"><path id="&#x30D1;&#x30B9;_3118" data-name="&#x30D1;&#x30B9; 3118" d="M963.963,568.209c.1-.551.585-2.341,1.067-4.063a150.11,150.11,0,0,0,4.82-21.692c.31-2,.482-2.41,1.067-2.513a130.4,130.4,0,0,0,16.286-4.269,46.821,46.821,0,0,1,6.542-1.859c.31.344-.861,8.091-1.859,12.085-1.481,6.026-3.925,13.566-4.958,15.253-.516.826-1.412,1.343-5.061,2.755a111.723,111.723,0,0,1-14.117,4.51c-3.753.964-4.028.964-3.787-.207Z" transform="translate(-963.899 -449.379)" fill="#f03a39"></path><path id="&#x30D1;&#x30B9;_3119" data-name="&#x30D1;&#x30B9; 3119" d="M985.422,291.473c-1.412-1.412-2.445-2.686-2.272-2.823.241-.241,1.963.551,5.716,2.686l1.859,1.1-1,.792a4.285,4.285,0,0,1-1.377.826,18.621,18.621,0,0,1-2.927-2.582Z" transform="translate(-976.509 -288.608)" fill="#f882ae"></path></g><g id="&#x30B0;&#x30EB;&#x30FC;&#x30D7;_1698" data-name="&#x30B0;&#x30EB;&#x30FC;&#x30D7; 1698" transform="translate(576.269 522.479)"><path id="&#x30D1;&#x30B9;_3120" data-name="&#x30D1;&#x30B9; 3120" d="M608.914,1019.747l.615-.737a2.1,2.1,0,0,0,1.359.593c.556,0,.853-.239.853-.614,0-.4-.325-.521-.8-.723l-.716-.3a1.55,1.55,0,0,1-1.085-1.439,1.669,1.669,0,0,1,1.851-1.547,2.373,2.373,0,0,1,1.677.687l-.542.672a1.707,1.707,0,0,0-1.135-.441c-.47,0-.766.21-.766.564,0,.383.376.521.831.7l.7.3a1.478,1.478,0,0,1,1.077,1.453,1.74,1.74,0,0,1-1.966,1.619A2.85,2.85,0,0,1,608.914,1019.747Z" transform="translate(-608.914 -1014.564)" fill="#57be81"></path><path id="&#x30D1;&#x30B9;_3121" data-name="&#x30D1;&#x30B9; 3121" d="M622.06,1020.881a1.952,1.952,0,1,1,1.944,2.125A1.975,1.975,0,0,1,622.06,1020.881Zm2.8,0c0-.759-.311-1.258-.86-1.258s-.86.5-.86,1.258.311,1.258.86,1.258S624.865,1021.648,624.865,1020.881Z" transform="translate(-617.534 -1017.043)" fill="#57be81"></path><path id="&#x30D1;&#x30B9;_3122" data-name="&#x30D1;&#x30B9; 3122" d="M635.206,1020.881a2.019,2.019,0,0,1,2.068-2.125,1.77,1.77,0,0,1,1.178.448l-.506.687a.923.923,0,0,0-.615-.268c-.622,0-1.041.5-1.041,1.258s.426,1.258,1,1.258a1.258,1.258,0,0,0,.788-.325l.426.7a2.038,2.038,0,0,1-1.33.491A1.937,1.937,0,0,1,635.206,1020.881Z" transform="translate(-626.153 -1017.043)" fill="#57be81"></path><path id="&#x30D1;&#x30B9;_3123" data-name="&#x30D1;&#x30B9; 3123" d="M646.756,1014.358a.619.619,0,1,1,.621.585A.57.57,0,0,1,646.756,1014.358Zm.087,1.236h1.063v4.048h-1.062Z" transform="translate(-633.727 -1013.78)" fill="#57be81"></path><path id="&#x30D1;&#x30B9;_3124" data-name="&#x30D1;&#x30B9; 3124" d="M652.8,1021.807c0-.868.7-1.323,2.335-1.5-.022-.4-.2-.7-.694-.7a2.288,2.288,0,0,0-1.114.383l-.383-.7a3.238,3.238,0,0,1,1.692-.535c1.026,0,1.554.615,1.554,1.786v2.364h-.868l-.072-.434h-.029a1.9,1.9,0,0,1-1.222.535A1.15,1.15,0,0,1,652.8,1021.807Zm2.335-.029v-.817c-.99.123-1.323.4-1.323.759,0,.318.224.456.535.456A1.1,1.1,0,0,0,655.138,1021.778Z" transform="translate(-637.691 -1017.043)" fill="#57be81"></path><path id="&#x30D1;&#x30B9;_3125" data-name="&#x30D1;&#x30B9; 3125" d="M665.8,1018.686v-4.634h1.063v4.677c0,.246.108.325.21.325a.6.6,0,0,0,.145-.015l.13.788a1.425,1.425,0,0,1-.549.094C666.063,1019.922,665.8,1019.438,665.8,1018.686Z" transform="translate(-646.215 -1013.958)" fill="#57be81"></path><path id="&#x30D1;&#x30B9;_3126" data-name="&#x30D1;&#x30B9; 3126" d="M677.436,1015.25h3.282v.9h-2.212v1.236h1.88v.9h-1.88v1.431H680.8v.9h-3.361Z" transform="translate(-653.843 -1014.744)" fill="#57be81"></path><path id="&#x30D1;&#x30B9;_3127" data-name="&#x30D1;&#x30B9; 3127" d="M690.1,1018.857h.867l.08.535h.022a1.865,1.865,0,0,1,1.316-.636c.875,0,1.251.607,1.251,1.627v2.523h-1.062v-2.393c0-.629-.174-.846-.572-.846a1.137,1.137,0,0,0-.838.456v2.783H690.1Z" transform="translate(-662.145 -1017.043)" fill="#57be81"></path><path id="&#x30D1;&#x30B9;_3128" data-name="&#x30D1;&#x30B9; 3128" d="M702.913,1019.6v-1.793h-.571v-.788l.629-.051.123-1.091h.881v1.091h1v.839h-1v1.793c0,.463.188.68.549.68a1.181,1.181,0,0,0,.4-.087l.174.774a2.617,2.617,0,0,1-.853.151C703.282,1021.121,702.913,1020.507,702.913,1019.6Z" transform="translate(-670.173 -1015.157)" fill="#57be81"></path><path id="&#x30D1;&#x30B9;_3129" data-name="&#x30D1;&#x30B9; 3129" d="M712.379,1018.857h.868l.08.716h.022a1.4,1.4,0,0,1,1.149-.817,1.144,1.144,0,0,1,.477.087l-.18.918a1.361,1.361,0,0,0-.427-.065c-.318,0-.7.21-.926.8v2.414h-1.063Z" transform="translate(-676.755 -1017.043)" fill="#57be81"></path><path id="&#x30D1;&#x30B9;_3130" data-name="&#x30D1;&#x30B9; 3130" d="M720.548,1020.881a1.984,1.984,0,0,1,1.887-2.125c1.114,0,1.692.817,1.692,1.93a2,2,0,0,1-.051.492h-2.494a1.064,1.064,0,0,0,1.12,1.012,1.666,1.666,0,0,0,.911-.282l.362.65a2.547,2.547,0,0,1-1.41.448A1.965,1.965,0,0,1,720.548,1020.881Zm2.667-.412c0-.542-.246-.889-.766-.889a.911.911,0,0,0-.883.889Z" transform="translate(-682.111 -1017.043)" fill="#57be81"></path><path id="&#x30D1;&#x30B9;_3131" data-name="&#x30D1;&#x30B9; 3131" d="M733.485,1018.857h.867l.08.419h.021a1.922,1.922,0,0,1,1.193-.52c1,0,1.59.817,1.59,2.06,0,1.388-.831,2.19-1.721,2.19a1.507,1.507,0,0,1-1.005-.441l.036.665v1.229h-1.062Zm2.66,1.974c0-.774-.246-1.2-.8-1.2a1.114,1.114,0,0,0-.8.419v1.778a1.1,1.1,0,0,0,.73.3C735.769,1022.132,736.145,1021.713,736.145,1020.831Z" transform="translate(-690.594 -1017.043)" fill="#57be81"></path><path id="&#x30D1;&#x30B9;_3132" data-name="&#x30D1;&#x30B9; 3132" d="M747.008,1018.857h.868l.079.716h.022a1.4,1.4,0,0,1,1.149-.817,1.144,1.144,0,0,1,.477.087l-.181.918a1.361,1.361,0,0,0-.427-.065c-.318,0-.7.21-.925.8v2.414h-1.063Z" transform="translate(-699.46 -1017.043)" fill="#57be81"></path><path id="&#x30D1;&#x30B9;_3133" data-name="&#x30D1;&#x30B9; 3133" d="M755.177,1020.881a1.984,1.984,0,0,1,1.886-2.125c1.114,0,1.692.817,1.692,1.93a2,2,0,0,1-.051.492h-2.494a1.064,1.064,0,0,0,1.12,1.012,1.668,1.668,0,0,0,.911-.282l.362.65a2.547,2.547,0,0,1-1.41.448A1.965,1.965,0,0,1,755.177,1020.881Zm2.667-.412c0-.542-.245-.889-.766-.889a.911.911,0,0,0-.882.889Z" transform="translate(-704.817 -1017.043)" fill="#57be81"></path><path id="&#x30D1;&#x30B9;_3134" data-name="&#x30D1;&#x30B9; 3134" d="M768.113,1018.857h.868l.079.535h.022a1.866,1.866,0,0,1,1.316-.636c.875,0,1.251.607,1.251,1.627v2.523h-1.063v-2.393c0-.629-.174-.846-.571-.846a1.138,1.138,0,0,0-.839.456v2.783h-1.063Z" transform="translate(-713.299 -1017.043)" fill="#57be81"></path><path id="&#x30D1;&#x30B9;_3135" data-name="&#x30D1;&#x30B9; 3135" d="M780.839,1020.881a1.984,1.984,0,0,1,1.887-2.125c1.114,0,1.692.817,1.692,1.93a2,2,0,0,1-.051.492h-2.494a1.064,1.064,0,0,0,1.12,1.012,1.667,1.667,0,0,0,.911-.282l.362.65a2.547,2.547,0,0,1-1.41.448A1.965,1.965,0,0,1,780.839,1020.881Zm2.667-.412c0-.542-.245-.889-.766-.889a.911.911,0,0,0-.882.889Z" transform="translate(-721.643 -1017.043)" fill="#57be81"></path><path id="&#x30D1;&#x30B9;_3136" data-name="&#x30D1;&#x30B9; 3136" d="M793.649,1021.579v-2.53h1.063v2.393c0,.621.173.846.564.846a.976.976,0,0,0,.824-.506v-2.733h1.063v4.048h-.868l-.079-.578h-.029a1.624,1.624,0,0,1-1.287.679C794.025,1023.2,793.649,1022.592,793.649,1021.579Z" transform="translate(-730.042 -1017.235)" fill="#57be81"></path><path id="&#x30D1;&#x30B9;_3137" data-name="&#x30D1;&#x30B9; 3137" d="M807.151,1018.857h.867l.08.716h.022a1.4,1.4,0,0,1,1.149-.817,1.147,1.147,0,0,1,.477.087l-.181.918a1.361,1.361,0,0,0-.427-.065c-.318,0-.7.21-.925.8v2.414h-1.063Z" transform="translate(-738.895 -1017.043)" fill="#57be81"></path><path id="&#x30D1;&#x30B9;_3138" data-name="&#x30D1;&#x30B9; 3138" d="M815.027,1022.436l.484-.665a1.755,1.755,0,0,0,1.084.441c.4,0,.586-.174.586-.427,0-.3-.419-.441-.846-.607-.513-.2-1.084-.506-1.084-1.186,0-.723.585-1.236,1.511-1.236a2.242,2.242,0,0,1,1.373.5l-.477.643a1.509,1.509,0,0,0-.867-.347c-.369,0-.543.159-.543.39,0,.3.376.4.8.564.535.2,1.128.47,1.128,1.222,0,.709-.556,1.279-1.612,1.279A2.566,2.566,0,0,1,815.027,1022.436Z" transform="translate(-744.06 -1017.043)" fill="#57be81"></path><path id="&#x30D1;&#x30B9;_3139" data-name="&#x30D1;&#x30B9; 3139" d="M826.533,1014.052H827.6v1.453l-.051.759a1.842,1.842,0,0,1,1.272-.593c.875,0,1.251.607,1.251,1.627v2.523h-1.063v-2.393c0-.629-.174-.846-.571-.846a1.138,1.138,0,0,0-.839.456v2.783h-1.063Z" transform="translate(-751.604 -1013.958)" fill="#57be81"></path><path id="&#x30D1;&#x30B9;_3140" data-name="&#x30D1;&#x30B9; 3140" d="M839.723,1014.358a.619.619,0,1,1,.621.585A.57.57,0,0,1,839.723,1014.358Zm.087,1.236h1.063v4.048H839.81Z" transform="translate(-760.252 -1013.78)" fill="#57be81"></path><path id="&#x30D1;&#x30B9;_3141" data-name="&#x30D1;&#x30B9; 3141" d="M846.357,1018.857h.868l.08.419h.022a1.92,1.92,0,0,1,1.192-.52c1,0,1.591.817,1.591,2.06,0,1.388-.831,2.19-1.72,2.19a1.5,1.5,0,0,1-1-.441l.036.665v1.229h-1.063Zm2.661,1.974c0-.774-.245-1.2-.8-1.2a1.115,1.115,0,0,0-.8.419v1.778a1.1,1.1,0,0,0,.73.3C848.641,1022.132,849.017,1021.713,849.017,1020.831Z" transform="translate(-764.602 -1017.043)" fill="#57be81"></path><path id="&#x30D1;&#x30B9;_3142" data-name="&#x30D1;&#x30B9; 3142" d="M864.9,1015.25h3.282v.9H865.97v1.236h1.88v.9h-1.88v1.431h2.291v.9H864.9Z" transform="translate(-776.761 -1014.744)" fill="#57be81"></path><path id="&#x30D1;&#x30B9;_3143" data-name="&#x30D1;&#x30B9; 3143" d="M877.562,1018.857h.868l.08.543h.022a1.7,1.7,0,0,1,1.243-.644,1.1,1.1,0,0,1,1.113.708,1.8,1.8,0,0,1,1.287-.708c.86,0,1.257.607,1.257,1.627v2.523H882.37v-2.393c0-.629-.181-.846-.564-.846a1.181,1.181,0,0,0-.781.456v2.783h-1.056v-2.393c0-.629-.188-.846-.571-.846a1.154,1.154,0,0,0-.774.456v2.783h-1.063Z" transform="translate(-785.063 -1017.043)" fill="#57be81"></path><path id="&#x30D1;&#x30B9;_3144" data-name="&#x30D1;&#x30B9; 3144" d="M897.806,1018.857h.868l.08.419h.022a1.92,1.92,0,0,1,1.193-.52c1,0,1.59.817,1.59,2.06,0,1.388-.832,2.19-1.721,2.19a1.5,1.5,0,0,1-1-.441l.036.665v1.229h-1.063Zm2.66,1.974c0-.774-.245-1.2-.8-1.2a1.115,1.115,0,0,0-.8.419v1.778a1.1,1.1,0,0,0,.73.3C900.091,1022.132,900.466,1021.713,900.466,1020.831Z" transform="translate(-798.337 -1017.043)" fill="#57be81"></path><path id="&#x30D1;&#x30B9;_3145" data-name="&#x30D1;&#x30B9; 3145" d="M910.595,1020.881a1.952,1.952,0,1,1,1.945,2.125A1.975,1.975,0,0,1,910.595,1020.881Zm2.805,0c0-.759-.311-1.258-.86-1.258s-.86.5-.86,1.258.311,1.258.86,1.258S913.4,1021.648,913.4,1020.881Z" transform="translate(-806.722 -1017.043)" fill="#57be81"></path><path id="&#x30D1;&#x30B9;_3146" data-name="&#x30D1;&#x30B9; 3146" d="M923.217,1019.049h1.063l.441,2c.08.4.13.781.2,1.186h.029c.08-.4.152-.8.253-1.186l.492-2h.94l.506,2c.094.4.166.781.253,1.186h.036c.072-.4.13-.788.2-1.186l.441-2h.983l-1,4.048H926.81l-.426-1.764c-.087-.383-.152-.752-.231-1.178h-.036c-.079.427-.137.8-.224,1.178l-.412,1.764h-1.215Z" transform="translate(-814.998 -1017.235)" fill="#57be81"></path><path id="&#x30D1;&#x30B9;_3147" data-name="&#x30D1;&#x30B9; 3147" d="M941.528,1020.881a1.984,1.984,0,0,1,1.887-2.125c1.114,0,1.692.817,1.692,1.93a2,2,0,0,1-.051.492h-2.494a1.064,1.064,0,0,0,1.12,1.012,1.667,1.667,0,0,0,.911-.282l.361.65a2.547,2.547,0,0,1-1.41.448A1.965,1.965,0,0,1,941.528,1020.881Zm2.667-.412c0-.542-.245-.889-.766-.889a.911.911,0,0,0-.883.889Z" transform="translate(-827.005 -1017.043)" fill="#57be81"></path><path id="&#x30D1;&#x30B9;_3148" data-name="&#x30D1;&#x30B9; 3148" d="M954.465,1018.857h.867l.08.716h.021a1.4,1.4,0,0,1,1.15-.817,1.147,1.147,0,0,1,.477.087l-.181.918a1.361,1.361,0,0,0-.426-.065c-.318,0-.7.21-.925.8v2.414h-1.063Z" transform="translate(-835.487 -1017.043)" fill="#57be81"></path><path id="&#x30D1;&#x30B9;_3149" data-name="&#x30D1;&#x30B9; 3149" d="M963.619,1018.857h.867l.08.543h.022a1.7,1.7,0,0,1,1.244-.644,1.1,1.1,0,0,1,1.113.708,1.8,1.8,0,0,1,1.287-.708c.86,0,1.258.607,1.258,1.627v2.523h-1.063v-2.393c0-.629-.181-.846-.564-.846a1.181,1.181,0,0,0-.781.456v2.783h-1.055v-2.393c0-.629-.188-.846-.571-.846a1.154,1.154,0,0,0-.774.456v2.783h-1.063Z" transform="translate(-841.489 -1017.043)" fill="#57be81"></path><path id="&#x30D1;&#x30B9;_3150" data-name="&#x30D1;&#x30B9; 3150" d="M983.129,1020.881a1.984,1.984,0,0,1,1.887-2.125c1.113,0,1.691.817,1.691,1.93a2,2,0,0,1-.05.492h-2.494a1.064,1.064,0,0,0,1.12,1.012,1.669,1.669,0,0,0,.911-.282l.362.65a2.549,2.549,0,0,1-1.41.448A1.965,1.965,0,0,1,983.129,1020.881Zm2.668-.412c0-.542-.246-.889-.767-.889a.911.911,0,0,0-.881.889Z" transform="translate(-854.282 -1017.043)" fill="#57be81"></path><path id="&#x30D1;&#x30B9;_3151" data-name="&#x30D1;&#x30B9; 3151" d="M996.064,1018.857h.868l.08.535h.022a1.864,1.864,0,0,1,1.315-.636c.875,0,1.251.607,1.251,1.627v2.523h-1.062v-2.393c0-.629-.174-.846-.571-.846a1.137,1.137,0,0,0-.839.456v2.783h-1.063Z" transform="translate(-862.763 -1017.043)" fill="#57be81"></path><path id="&#x30D1;&#x30B9;_3152" data-name="&#x30D1;&#x30B9; 3152" d="M1008.879,1019.6v-1.793h-.571v-.788l.629-.051.123-1.091h.881v1.091h1v.839h-1v1.793c0,.463.188.68.55.68a1.18,1.18,0,0,0,.4-.087l.174.774a2.616,2.616,0,0,1-.853.151C1009.248,1021.121,1008.879,1020.507,1008.879,1019.6Z" transform="translate(-870.791 -1015.157)" fill="#57be81"></path><path id="&#x30D1;&#x30B9;_3153" data-name="&#x30D1;&#x30B9; 3153" d="M1023.363,1015.25h1.468a2.679,2.679,0,0,1,.058,5.357h-1.526Zm1.4,4.5c1,0,1.619-.535,1.619-1.836s-.622-1.8-1.619-1.8h-.333v3.636Z" transform="translate(-880.663 -1014.744)" fill="#57be81"></path><path id="&#x30D1;&#x30B9;_3154" data-name="&#x30D1;&#x30B9; 3154" d="M1037.371,1020.881a1.984,1.984,0,0,1,1.887-2.125c1.113,0,1.691.817,1.691,1.93a2,2,0,0,1-.05.492H1038.4a1.064,1.064,0,0,0,1.121,1.012,1.668,1.668,0,0,0,.911-.282l.362.65a2.549,2.549,0,0,1-1.41.448A1.965,1.965,0,0,1,1037.371,1020.881Zm2.668-.412c0-.542-.246-.889-.767-.889a.911.911,0,0,0-.881.889Z" transform="translate(-889.847 -1017.043)" fill="#57be81"></path><path id="&#x30D1;&#x30B9;_3155" data-name="&#x30D1;&#x30B9; 3155" d="M1048.858,1019.049h1.07l.593,2.017c.108.4.217.817.326,1.229h.036c.108-.412.217-.831.325-1.229l.593-2.017h1.019l-1.352,4.048h-1.229Z" transform="translate(-897.379 -1017.235)" fill="#57be81"></path><path id="&#x30D1;&#x30B9;_3156" data-name="&#x30D1;&#x30B9; 3156" d="M1061.416,1020.881a1.984,1.984,0,0,1,1.887-2.125c1.113,0,1.691.817,1.691,1.93a2.009,2.009,0,0,1-.05.492h-2.494a1.064,1.064,0,0,0,1.121,1.012,1.669,1.669,0,0,0,.911-.282l.361.65a2.549,2.549,0,0,1-1.41.448A1.965,1.965,0,0,1,1061.416,1020.881Zm2.668-.412c0-.542-.246-.889-.767-.889a.911.911,0,0,0-.881.889Z" transform="translate(-905.613 -1017.043)" fill="#57be81"></path><path id="&#x30D1;&#x30B9;_3157" data-name="&#x30D1;&#x30B9; 3157" d="M1074.351,1018.686v-4.634h1.063v4.677c0,.246.109.325.21.325a.593.593,0,0,0,.145-.015l.13.788a1.426,1.426,0,0,1-.549.094C1074.611,1019.922,1074.351,1019.438,1074.351,1018.686Z" transform="translate(-914.095 -1013.958)" fill="#57be81"></path><path id="&#x30D1;&#x30B9;_3158" data-name="&#x30D1;&#x30B9; 3158" d="M1080.231,1020.881a1.952,1.952,0,1,1,1.945,2.125A1.975,1.975,0,0,1,1080.231,1020.881Zm2.805,0c0-.759-.311-1.258-.86-1.258s-.86.5-.86,1.258.311,1.258.86,1.258S1083.036,1021.648,1083.036,1020.881Z" transform="translate(-917.95 -1017.043)" fill="#57be81"></path><path id="&#x30D1;&#x30B9;_3159" data-name="&#x30D1;&#x30B9; 3159" d="M1094.111,1018.857h.868l.08.419h.022a1.92,1.92,0,0,1,1.192-.52c1,0,1.591.817,1.591,2.06,0,1.388-.832,2.19-1.721,2.19a1.505,1.505,0,0,1-1-.441l.036.665v1.229h-1.063Zm2.661,1.974c0-.774-.245-1.2-.8-1.2a1.115,1.115,0,0,0-.8.419v1.778a1.1,1.1,0,0,0,.73.3C1096.4,1022.132,1096.771,1021.713,1096.771,1020.831Z" transform="translate(-927.051 -1017.043)" fill="#57be81"></path><path id="&#x30D1;&#x30B9;_3160" data-name="&#x30D1;&#x30B9; 3160" d="M1107.636,1018.857h.868l.079.543h.022a1.7,1.7,0,0,1,1.243-.644,1.1,1.1,0,0,1,1.114.708,1.794,1.794,0,0,1,1.286-.708c.86,0,1.258.607,1.258,1.627v2.523h-1.063v-2.393c0-.629-.18-.846-.564-.846a1.181,1.181,0,0,0-.781.456v2.783h-1.055v-2.393c0-.629-.188-.846-.572-.846a1.154,1.154,0,0,0-.773.456v2.783h-1.062Z" transform="translate(-935.919 -1017.043)" fill="#57be81"></path><path id="&#x30D1;&#x30B9;_3161" data-name="&#x30D1;&#x30B9; 3161" d="M1127.145,1020.881a1.984,1.984,0,0,1,1.887-2.125c1.114,0,1.692.817,1.692,1.93a2,2,0,0,1-.051.492h-2.494a1.064,1.064,0,0,0,1.12,1.012,1.669,1.669,0,0,0,.911-.282l.361.65a2.547,2.547,0,0,1-1.409.448A1.965,1.965,0,0,1,1127.145,1020.881Zm2.667-.412c0-.542-.245-.889-.766-.889a.912.912,0,0,0-.882.889Z" transform="translate(-948.711 -1017.043)" fill="#57be81"></path><path id="&#x30D1;&#x30B9;_3162" data-name="&#x30D1;&#x30B9; 3162" d="M1140.08,1018.857h.867l.08.535h.022a1.865,1.865,0,0,1,1.316-.636c.875,0,1.25.607,1.25,1.627v2.523h-1.062v-2.393c0-.629-.173-.846-.571-.846a1.137,1.137,0,0,0-.839.456v2.783h-1.063Z" transform="translate(-957.192 -1017.043)" fill="#57be81"></path><path id="&#x30D1;&#x30B9;_3163" data-name="&#x30D1;&#x30B9; 3163" d="M1152.895,1019.6v-1.793h-.571v-.788l.629-.051.123-1.091h.881v1.091h1v.839h-1v1.793c0,.463.188.68.55.68a1.181,1.181,0,0,0,.4-.087l.173.774a2.617,2.617,0,0,1-.853.151C1153.263,1021.121,1152.895,1020.507,1152.895,1019.6Z" transform="translate(-965.221 -1015.157)" fill="#57be81"></path></g><g id="&#x30B0;&#x30EB;&#x30FC;&#x30D7;_1699" data-name="&#x30B0;&#x30EB;&#x30FC;&#x30D7; 1699" transform="translate(586.085 462.067)"><path id="&#x30D1;&#x30B9;_3164" data-name="&#x30D1;&#x30B9; 3164" d="M637.422,881l5.853-6.595c3.65,3.168,8.47,5.3,12.946,5.3,5.3,0,8.126-2.134,8.126-5.5,0-3.556-3.1-4.655-7.644-6.466l-6.817-2.715c-5.164-2-10.329-5.883-10.329-12.866,0-7.823,7.3-13.836,17.628-13.836a23.392,23.392,0,0,1,15.976,6.142L668,850.479a16.86,16.86,0,0,0-10.811-3.944c-4.476,0-7.3,1.875-7.3,5.043,0,3.427,3.581,4.655,7.919,6.271l6.68,2.651c6.2,2.392,10.261,6.078,10.261,13,0,7.823-6.955,14.482-18.731,14.482A28.127,28.127,0,0,1,637.422,881Z" transform="translate(-637.422 -838.324)" fill="#57be81"></path><path id="&#x30D1;&#x30B9;_3165" data-name="&#x30D1;&#x30B9; 3165" d="M772.02,840.765h31.263v8.017H782.212v11.056h17.9v8.017h-17.9v12.8h21.829v8.017H772.02Z" transform="translate(-725.676 -839.925)" fill="#57be81"></path><path id="&#x30D1;&#x30B9;_3166" data-name="&#x30D1;&#x30B9; 3166" d="M895.019,840.765h31.263v8.017H905.21v11.056h17.9v8.017h-17.9v12.8h21.829v8.017h-32.02Z" transform="translate(-806.325 -839.925)" fill="#57be81"></path><path id="&#x30D1;&#x30B9;_3167" data-name="&#x30D1;&#x30B9; 3167" d="M1018.017,840.765H1032c15.563,0,25.2,7.629,25.2,23.792,0,16.1-9.641,24.116-24.652,24.116h-14.53Zm13.359,40.214c9.5,0,15.425-4.784,15.425-16.422,0-11.7-5.922-16.1-15.425-16.1h-3.168v32.521Z" transform="translate(-886.973 -839.925)" fill="#57be81"></path></g></g></svg>